<?xml version="1.0" encoding="utf-8"?>
<!-- Generator: Adobe Illustrator 19.2.1, SVG Export Plug-In . SVG Version: 6.00 Build 0)  -->
<svg version="1.1" id="Vector_Graphics" xmlns="http://www.w3.org/2000/svg" xmlns:xlink="http://www.w3.org/1999/xlink" x="0px"
	 y="0px" width="300px" height="300px" viewBox="0 0 300 300" style="enable-background:new 0 0 300 300;" xml:space="preserve">
<style type="text/css">
	.st0{fill:#231F20;}
	.st1{fill:#C92026;}
	.st2{fill:#CC2929;}
</style>
<path class="st0" d="M10,198.5c-0.3,0-0.4-0.1-0.4-0.1S9.7,198.4,10,198.5z"/>
<path class="st1" d="M236.9,188.4c-6.2-5.5-14.2-9.3-21.8-12.2c23.3,1.6,31,13.5,41.3,32.1c6.2,11.3,13.8,21.7,27.7,22.6
	c-5,2.2-10.8,2.4-15.9,0c4.6,7.7,13.6,11.8,22.2,12.7C255.1,250.1,255.8,204.9,236.9,188.4C230.6,182.9,241.6,192.5,236.9,188.4z"/>
<path class="st2" d="M258.7,134.1c-5.7,1.7-10.7,3.4-15.1,7.1c-0.3-4.8-0.5-9.5-0.8-14.3c-2.7,3.6-6.9,11.4-10.9,12.4
	c-6.8,1.7-25.7-5.7-30.2-10.8c-2.8-3.2-2.1-10.1-4.9-12.8c-5.8-5.6-4.9-1.1-12.6-3.7c-10.5-3.5-11.9-8.3-20.7-14.4
	c-15.1-10.4-26.7-0.1-22.3-24.7c5.9-32.5,11.9-49.9-17.5-73c5.8,21.2,8.9,41.4,0,61.9c-6.6,15-7.4,38.2,12.7,46
	c-33,12.9-38.8-13.7-49.5-37.1C77,48.9,60,36,34.9,38.1c15.7,13.8,29.7,24.2,34,45.2c3.9,19,10.7,36.4,29.5,46.1
	c-28.1,6-30.3,17.5-43.5,40.4c-9.3,16.2-24.4,31.9-45,28.7c15.2,2.5,36.5,4.1,49.6-5.6C23.7,222.7,47.3,262.1,47.6,300
	c30.4-11.5,60.8-23,91.3-34.5c-14.1-14.7-20.1-32.8-21.4-52.8c7.3,10.1,16.2,19.5,26.2,27c-9.9-12.7-19.7-32.7-2.7-43.6
	c17.3-11.1,40.3,0.6,55.7,9.7c9.9,5.8,6.1,4.2,11.3,13.3c3,5.3,4.3,15.2,12.5,7.9c2.1-1.8,3.3-15.4,5-18.8c2.8-5.6,7.6-10,10.2-16.1
	c-3.3,2.2-7.6,3-11.1,4.8c-0.3-4.2-0.5-8.5-0.8-12.7c-4,2.9-7.9,5.8-11.9,8.7c0.5-4.2,1.1-8.5,1.6-12.7c-2.3,1.6-5.6,1.7-7.9,3.2
	c-0.5-2.1-1.1-4.2-1.6-6.3c-17.5,9.5-15.9-10.7-31-13.5c6.9,0.9,17.7,2.2,23-3.2c-1.7,4.2-3.2,8.3-4,12.7c7.7-5.3,15.3-10.6,23-15.9
	c-1.6,5.3-3.2,10.6-4.8,15.9c5.8-5.3,11.6-10.6,17.5-15.9c-1.6,6.1-3.2,12.2-4.8,18.3c4.5-5,9-10.1,13.5-15.1
	c-0.3,4.2-0.5,8.5-0.8,12.7c3.7-5.3,7.4-10.6,11.1-15.9c2.4,7.9,4.8,15.9,7.1,23.8C257.6,166.5,251.6,147.1,258.7,134.1z
	 M167.5,142.1C168.1,142.3,168.3,142.5,167.5,142.1C161.4,139.3,165.8,141.3,167.5,142.1c-8.5-3.8-11.1-18.9-12.7-27
	c5.1,8.3,13.1,10.4,21.4,14.3c11.2,5.2,12,8.9,19,18.3C190.9,141.7,173.8,144.9,167.5,142.1z"/>
</svg>
